# xmcd
#
# Track frame offsets: 
#        150
#        18600
#        46492
#        68415
#        102257
#        129060
#        161818
#        183875
#        206380
#
# Disc length: 2939 seconds
#
# Revision: 1
# Processed by: cddbd v1.5.2PL0 Copyright (c) Steve Scherf et al.
# Submitted via: ExactAudioCopy v1.3
#
DISCID=6d0b7909
DTITLE=Big Apple Blues - Energy
DYEAR=2014
DGENRE=Soul Blues
TTITLE0=Wake Up and Do Something
TTITLE1=I-278 Grind
TTITLE2=Morning Jive
TTITLE3=Remembering Eni
TTITLE4=Lost In Thoughts
TTITLE5=Day Dreaming
TTITLE6=Happy Hour
TTITLE7=Unwind
TTITLE8=Energy
EXTD=
EXTT0=
EXTT1=
EXTT2=
EXTT3=
EXTT4=
EXTT5=
EXTT6=
EXTT7=
EXTT8=
PLAYORDER=
